<svg width="146" height="51" viewBox="0 0 146 51" fill="none" xmlns="http://www.w3.org/2000/svg">
<g id="billing-logo.svg" clip-path="url(#clip0_1_6140)">
<path id="Vector" d="M63.9462 24.6511H71.8032C75.4456 24.6511 78.4288 25.8132 78.4288 29.9412C78.4288 32.1093 77.3188 33.5836 75.2201 34.1733C77.9258 34.711 79.2614 36.2199 79.2614 38.9777C79.2614 43.2271 76.07 44.58 72.3409 44.58H63.9635V24.6511H63.9462ZM71.3349 33.0112C73.503 33.0112 74.7171 32.3694 74.7171 30.0279C74.7171 27.8425 73.1734 27.3569 71.2655 27.3569H67.7099V33.0112H71.3349ZM71.8553 41.8742C74.058 41.8742 75.4629 41.0243 75.4629 38.7349C75.4629 36.2026 73.7285 35.5782 71.5951 35.5782H67.7099V41.8742H71.8553ZM83.9791 23.836C85.1065 23.836 86.0084 24.6685 86.0084 25.8306C86.0084 26.9753 85.1411 27.8078 83.9964 27.8078C82.869 27.8078 81.9151 26.958 81.9151 25.8132C81.9151 24.6511 82.8517 23.836 83.9791 23.836ZM82.2273 30.0279H85.7135V44.58H82.2273V30.0279ZM89.7548 24.0961L93.241 22.5871V44.58H89.7548V24.0961ZM97.2476 24.0961L100.734 22.5871V44.58H97.2476V24.0961ZM106.51 23.836C107.637 23.836 108.539 24.6685 108.539 25.8306C108.539 26.9753 107.672 27.8078 106.527 27.8078C105.4 27.8078 104.446 26.958 104.446 25.8132C104.446 24.6511 105.382 23.836 106.51 23.836ZM104.758 30.0279H108.244V44.58H104.758V30.0279ZM112.181 29.9932H115.667V32.3174C116.604 30.5136 118.564 29.6984 120.593 29.6984C124.097 29.6984 125.675 32.1613 125.675 35.4741V44.5973H122.137V35.821C122.137 33.7744 121.218 32.5776 119.154 32.5776C116.968 32.5776 115.667 33.9305 115.667 36.0291V44.5973H112.181V29.9932ZM131.59 45.2217C132.318 46.8348 134.001 47.3204 135.614 47.3204C138.198 47.3204 139.759 46.0889 139.759 43.4352V41.2498C138.77 42.9322 136.81 43.9903 134.868 43.9903C130.74 43.9903 128.346 40.7468 128.346 36.9484C128.346 33.0285 130.913 29.6811 134.955 29.6811C136.932 29.6811 138.736 30.4789 139.759 32.2307V29.9932H143.263V43.4873C143.263 48.0662 139.828 49.9221 135.614 49.9221C132.908 49.9221 130.011 49.1589 128.832 46.4185L131.59 45.2217ZM139.898 36.7576C139.898 34.26 138.545 32.3694 135.908 32.3694C133.116 32.3694 131.937 34.4855 131.937 37.0178C131.937 39.2899 133.359 41.3019 135.787 41.3019C138.51 41.3019 139.898 39.2899 139.898 36.7576ZM63.9809 18.3377L70.3983 9.07579H64.6399V7.25461H73.4163V8.15653L67.1549 17.4185H73.2255V19.2397H63.9809V18.3377ZM78.8971 10.2899C81.5682 10.2899 83.6148 12.1631 83.6148 14.8515C83.6148 17.6093 81.4641 19.4305 78.8104 19.4305C76.1394 19.4305 73.9886 17.5746 73.9886 14.9035C73.9886 12.1284 76.2608 10.2899 78.8971 10.2899ZM81.36 14.8515C81.36 13.2385 80.5449 11.8856 78.8104 11.8856C77.0413 11.8856 76.3301 13.2905 76.3301 14.9035C76.3301 16.4645 77.1627 17.7827 78.8624 17.7827C80.6142 17.8001 81.36 16.3952 81.36 14.8515ZM85.1411 6.49146H87.2398V11.8682C87.8122 10.7755 88.9569 10.2899 90.171 10.2899C92.2697 10.2899 93.3277 11.7642 93.3277 13.7588V19.257H91.2117V13.9669C91.2117 12.7008 90.5526 12.007 89.3385 12.007C87.9856 12.007 87.2398 12.8395 87.2398 14.0883V19.2397H85.1411V6.49146ZM99.6065 10.2899C102.278 10.2899 104.324 12.1631 104.324 14.8515C104.324 17.6093 102.173 19.4305 99.5197 19.4305C96.8487 19.4305 94.698 17.5746 94.698 14.9035C94.698 12.1284 96.9701 10.2899 99.6065 10.2899ZM102.069 14.8515C102.069 13.2385 101.254 11.8856 99.5197 11.8856C97.7506 11.8856 97.0395 13.2905 97.0395 14.9035C97.0395 16.4645 97.872 17.7827 99.5718 17.7827C101.324 17.8001 102.069 16.3952 102.069 14.8515Z" fill="black"/>
<path id="Vector_2" d="M24.4354 51.0495C24.366 51.0495 24.2967 51.0495 24.2099 51.0322C20.2207 50.4425 14.8439 48.3264 10.5598 45.6727C8.2183 44.2158 6.3451 42.7068 4.97488 41.1978C3.30981 39.342 2.45993 37.5035 2.45993 35.769V15.476C2.45993 13.967 3.22309 12.354 4.73206 10.6715C5.98086 9.26663 7.76735 7.80969 9.90072 6.45682C14.2368 3.69905 19.5616 1.56568 24.1752 0.767828C24.7129 0.681106 25.2506 0.88924 25.5801 1.30551C25.9097 1.72178 25.9964 2.31149 25.7883 2.79713L16.6304 24.3217C19.4575 25.6225 22.3541 26.6285 24.7303 27.1315C25.4067 27.2702 25.9097 27.8773 25.9097 28.5711V49.5752C25.9097 50.0089 25.7189 50.4078 25.3894 50.6853C25.1292 50.9281 24.7823 51.0495 24.4354 51.0495ZM5.4085 20.6967V35.7517C5.4085 36.7403 6.01555 37.9371 7.16029 39.2206C8.32237 40.5214 10.0395 41.8916 12.1035 43.1751C15.503 45.2738 19.5616 46.9909 22.9438 47.7888V29.7505C19.0413 28.7618 14.3756 26.7672 10.4557 24.4084C8.40909 23.1596 6.70933 21.9281 5.4085 20.6967ZM21.9378 4.30611C18.3995 5.2774 14.6531 6.92513 11.4791 8.93709C7.00419 11.7816 5.4085 14.2272 5.4085 15.4586C5.4085 16.586 7.1256 18.9622 11.9821 21.8761C12.6238 22.2577 13.2829 22.6392 13.9767 23.0035L21.9378 4.30611ZM30.7835 51.0495C30.3325 51.0495 29.9163 50.8414 29.6214 50.4945C29.2919 50.0782 29.2051 49.4885 29.4133 49.0029L38.5712 27.4957C35.744 26.1949 32.8475 25.1889 30.4713 24.6859C29.7949 24.5471 29.2919 23.9401 29.2919 23.2463V2.24211C29.2919 1.8085 29.4827 1.40957 29.8122 1.13206C30.1418 0.854551 30.5754 0.733139 30.9916 0.785173C34.9809 1.37489 40.3577 3.49091 44.6418 6.14462C46.9833 7.60156 48.8565 9.11053 50.2267 10.6195C51.8918 12.4754 52.7416 14.3139 52.7416 16.0483V36.3414C52.7416 37.8504 51.9785 39.4634 50.4695 41.1458C49.2207 42.5507 47.4342 44.0077 45.3008 45.3605C40.9821 48.1183 35.64 50.2343 31.0263 51.0322C30.9396 51.0322 30.8529 51.0495 30.7835 51.0495ZM41.2249 28.7965L33.2638 47.4939C36.802 46.5226 40.5484 44.8749 43.7225 42.8629C48.2147 40.0184 49.8104 37.5728 49.8104 36.3414C49.8104 35.214 48.0933 32.8378 43.2368 29.9239C42.5778 29.5423 41.9187 29.1608 41.2249 28.7965ZM32.2578 22.0495C36.1603 23.0382 40.826 25.0328 44.7458 27.3916C46.8098 28.6231 48.5096 29.8719 49.7931 31.1034V16.0483C49.7931 15.0597 49.186 13.8629 48.0413 12.5794C46.8792 11.2786 45.1621 9.90838 43.0981 8.62489C39.6986 6.5262 35.64 4.8091 32.2578 4.01125V22.0495Z" fill="#089949"/>
</g>
<defs>
<clipPath id="clip0_1_6140">
<rect width="145" height="51.3397" fill="white" transform="translate(0.5 0.230103)"/>
</clipPath>
</defs>
</svg>
